<?xml version="1.0" encoding="UTF-8" standalone="no"?>
<!-- Created with Make The Cut! -->

<svg
   xmlns:mtc="http://www.make-the-cut.com/namespaces/make-the-cut"
   xmlns:dc="http://purl.org/dc/elements/1.1/"
   xmlns:cc="http://creativecommons.org/ns#"
   xmlns:rdf="http://www.w3.org/1999/02/22-rdf-syntax-ns#"
   xmlns:svg="http://www.w3.org/2000/svg"
   xmlns="http://www.w3.org/2000/svg"
   xmlns:sodipodi="http://sodipodi.sourceforge.net/DTD/sodipodi-0.dtd"
   xmlns:inkscape="http://www.inkscape.org/namespaces/inkscape"
   mtc:dpi="90"
   version="1.1"
   width="665.06134"
   height="726.60046"
   viewBox="0 0 665.06115 726.60051"
   id="svg2"
   inkscape:version="0.48.5 r10040"
   sodipodi:docname="pickle_rick_rab.svg">
  <metadata
     id="metadata26">
    <rdf:RDF>
      <cc:Work
         rdf:about="">
        <dc:format>image/svg+xml</dc:format>
        <dc:type
           rdf:resource="http://purl.org/dc/dcmitype/StillImage" />
      </cc:Work>
    </rdf:RDF>
  </metadata>
  <defs
     id="defs24" />
  <sodipodi:namedview
     pagecolor="#ffffff"
     bordercolor="#666666"
     borderopacity="1"
     objecttolerance="10"
     gridtolerance="10"
     guidetolerance="10"
     inkscape:pageopacity="0"
     inkscape:pageshadow="2"
     inkscape:window-width="686"
     inkscape:window-height="480"
     id="namedview22"
     showgrid="false"
     inkscape:zoom="0.32480023"
     inkscape:cx="332.55888"
     inkscape:cy="363.29761"
     inkscape:window-x="0"
     inkscape:window-y="0"
     inkscape:window-maximized="0"
     inkscape:current-layer="g19" />
  <g
     inkscape:groupmode="layer"
     label="Inkscape Layer: path5385: path5385: 2"
     id="Inkscape Layer: path5385: path5385: 2"
     transform="translate(0.0101586,0.04107714)">
    <path
       label="path5385: 2"
       id="path5385: 2"
       d="m 133.507,725.966 c -0.403,-0.332 -4.346,-0.89 -8.761,-1.241 -23.021,-1.829 -53.9684,-9.45 -76.6899,-18.887 C 31.057,698.779 15.4688,686.592 8.85507,675.191 -1.43878,657.446 -2.86702,628.639 5.08796,599.211 12.4615,571.935 24.9876,550.786 53.4144,517.619 79.0843,487.668 91.615,475.011 121.432,448.913 c 21.052,-18.425 37.53,-35.246 60.682,-61.945 44.871,-51.745 57.216,-68.412 102.847,-138.846 16.542,-25.532 42.57,-63.106 60.98,-88.03 16.395,-22.195 26.262,-36.432 44.684,-64.4721 27.521,-41.8909 45.503,-60.0685 75.799,-76.6217 14.164,-7.739 23.471,-11.11918 39.35,-14.29148 7.644,-1.52697 15.363,-3.25818 17.154,-3.847061 5.717,-1.880039 13.031,-0.9031108 28.037,3.745131 50.032,15.49681 83.954,38.13481 100.632,67.15581 4.444,7.7331 9.627,24.8671 10.892,36.0064 0.382,3.366 1.119,6.337 1.638,6.6 1.233,0.627 1.232,32.895 -0.002,33.522 -0.519,0.264 -1.259,3.264 -1.643,6.666 -2.431,21.518 -26.53,82.761 -46.671,118.605 -7.552,13.44 -8.256,14.77 -21.965,41.511 -5.158,10.062 -14.217,26.246 -20.13,35.964 -9.472,15.565 -20.594,35.453 -32.03,57.273 -6.559,12.515 -13.432,22.99 -33.755,51.441 -33.25,46.55 -56.782,78.226 -67.301,90.591 -19.775,23.248 -113.476,104.537 -150.324,130.413 -19.099,13.412 -27.895,18.118 -47.112,25.208 -29.647,10.939 -59.371,17.948 -79.996,18.865 -6.695,0.297 -12.646,0.901 -13.224,1.342 -1.217,0.928 -15.373,1.098 -16.467,0.198 z"
       inkscape:connector-curvature="0"
       style="fill:#282828;stroke:none" />
  </g>
  <g
     inkscape:groupmode="layer"
     label="New Layer"
     id="New Layer"
     transform="translate(0.0101586,0.04107714)">
    <path
       label="path5391 (1): 19 (J): 1 (W) (J) (B)"
       id="path5391 (1): 19 (J): 1 (W) (J) (B)"
       d="m 440.659,157.295 c -14.757,-2.795 -29.179,-16.8 -26.502,-25.736 0.822,-2.743 2.535,-1.257 4.387,3.807 3.309,9.044 9.636,14.399 20.881,17.673 4.591,1.337 6.328,2.243 6.328,3.302 0,1.154 -2.031,1.534 -5.094,0.954 z m -1.276,0.568 c 4.12,0.876 7.017,0.168 7.521,-1.84 0.365,-1.454 -0.696,-2.044 -6.349,-3.534 -11.338,-2.988 -17.893,-8.457 -21.326,-17.794 -1.679,-4.566 -3.871,-6.408 -5.876,-4.94 -0.766,0.561 -0.634,5.269 0.218,7.738 3.067,8.885 14.597,17.984 25.812,20.37 z M 282,627.122 c -5.616,-0.908 -12.552,-3.84 -11.833,-5.001 0.223,-0.362 0.935,-0.16 3.744,1.061 13.008,5.656 26.482,0.692 29.432,-10.844 0.814,-3.183 0.562,-5.29 -1.093,-9.126 -1.102,-2.554 -1.161,-2.776 -0.795,-3.003 2.156,-1.332 5.054,8.223 3.875,12.775 -2.225,8.583 -13.907,15.663 -23.33,14.138 z M 73.2853,533.777 c -11.9943,-8.184 -11.285,-18.056 1.7681,-24.608 5.9267,-2.975 13.5216,-3.72 16.4081,-1.61 0.7567,0.554 0.3555,0.64 -4.0268,0.869 -10.2962,0.538 -14.1951,2.049 -17.9779,6.971 -3.964,5.158 -3.4222,8.478 2.4037,14.724 4.9397,5.297 5.3412,6.326 1.4248,3.654 z m 75.0197,-26.921 c -2.092,-4.135 0.452,-12.22 4.921,-15.639 6.382,-4.882 17.827,-4.339 24.905,1.181 l 0.535,0.417 -0.703,0.674 -0.702,0.673 -1.122,-1.176 c -5.687,-5.959 -20.783,-3.993 -25.573,3.331 -0.6,0.918 -0.616,1.048 -0.775,6.211 -0.192,6.261 -0.134,5.625 -0.517,5.625 -0.172,0 -0.608,-0.584 -0.969,-1.297 z M 472.6,421.991 c -1.833,-0.333 -3.85,-1.131 -3.85,-1.524 0,-0.175 1.962,-0.246 6.387,-0.23 8.337,0.03 9.673,-0.269 12.683,-2.838 3.539,-3.02 4.404,-4.901 4.841,-10.534 0.679,-8.747 0.85,-9.769 1.394,-8.339 1.236,3.252 0.563,12.206 -1.174,15.622 -2.942,5.782 -12.108,9.327 -20.281,7.843 z M 204.061,392.536 c -3.699,-3.888 -4.168,-10.072 -1.005,-13.259 2.956,-2.977 12.485,-6.946 12.485,-5.199 0,0.472 -1.144,1.126 -3.751,2.143 -8.9,3.472 -10.876,7.317 -7.246,14.099 1.652,3.085 1.408,4.204 -0.483,2.216 z M 102.225,622.502 c -19.9985,-3.029 -22.0215,-16.208 -6.3723,-41.51 14.4113,-23.3 37.2783,-47.17 71.2903,-74.418 7.154,-5.731 9.848,-8.467 9.848,-10.004 0,-0.717 2.017,-2.796 2.929,-3.017 1.289,-0.313 2.773,-1.56 8.054,-6.768 17.526,-17.282 25.704,-27.937 36.224,-47.198 12.609,-23.084 19.887,-32.409 40.449,-51.823 10.99,-10.377 13.153,-12.722 20.977,-22.748 6.098,-7.815 6.51,-8.287 16.881,-19.336 10.956,-11.673 12.971,-14.115 15.188,-18.404 1.2,-2.324 1.63,-3.536 4.237,-11.948 1.419,-4.576 3.729,-9.155 9.166,-18.164 14.118,-23.395 17.965,-32.678 24.962,-60.234 3.789,-14.92 5.172,-22.697 6.785,-38.136 0.796,-7.626 1.036,-7.845 3.415,-3.114 4.026,8.008 9.537,15.85 15.212,21.645 8.346,8.525 17.271,15.034 20.614,15.034 1.912,0 2.238,-1.396 0.841,-3.599 -1.209,-1.907 -1.186,-1.899 5.111,1.82 27.679,16.346 47.133,24.218 68.369,27.665 12.481,2.026 12.609,2.072 9.785,3.505 -1.798,0.913 -2.758,1.854 -5.279,5.18 -0.977,1.289 -3.641,4.558 -5.919,7.265 -13.02,15.471 -16.169,19.346 -26.002,31.992 -17.57,22.597 -19.053,23.862 -53.445,45.58 -27.241,17.203 -34.062,23.053 -47.827,41.022 -12.327,16.09 -17.19,25.159 -24.121,44.98 -2.591,7.41 -3.951,10.634 -5.753,13.638 -9.314,15.525 -24.196,29.633 -41.525,39.363 -2.23,1.253 -5.268,2.958 -6.75,3.79 -9.008,5.056 -14.01,9.379 -17.194,14.862 -4.919,8.469 -16.371,19.981 -57.806,58.108 -41.233,37.941 -50.424,45.238 -63.434,50.361 -9.28,3.654 -21.918,5.67 -28.91,4.611 z M 313.922,242.829 c -5.705,-3.479 -8.058,-13.161 -4.591,-18.891 2.641,-4.366 17.233,-11.284 22.427,-10.631 1.7,0.213 0.218,0.985 -5.999,3.125 -16.824,5.791 -20.493,12.233 -12.873,22.6 2.811,3.825 3.157,5.09 1.036,3.797 z m 179.24,25.664 c -7.579,-0.485 -10.829,-2.306 -8.328,-4.665 1.111,-1.048 2.291,-1.173 6.346,-0.677 23.064,2.823 46.786,-10.372 50.384,-28.026 1.465,-7.191 -0.521,-14.44 -7.075,-25.826 -2.774,-4.82 -2.925,-5.611 -1.132,-5.947 3.228,-0.606 9.554,7.679 12.359,16.187 5.155,15.636 -0.262,28.761 -16.343,39.599 -8.985,6.056 -24.63,10.098 -36.211,9.355 z M 395.91,223.029 c -2.978,-1.989 -10.539,-9.404 -14.182,-13.91 -5.963,-7.375 -10.938,-17.261 -12.301,-24.445 -1.971,-10.392 8.622,-28.283 19.218,-32.456 8.176,-3.22 21.521,-1.378 30.547,4.216 4.96,3.074 7.607,3.69 9.365,2.178 2.242,-1.929 -7.042,-7.938 -17.99,-11.645 -4.049,-1.371 -9.503,-1.97 -18.728,-2.059 -0.695,-0.007 -0.753,-0.053 -0.482,-0.38 0.96,-1.156 10.991,-8.924 17.962,-13.91 2.218,-1.586 4.536,-3.346 5.151,-3.91 0.615,-0.565 1.198,-1.027 1.295,-1.027 0.471,0 1.67,1.486 2.648,3.281 3.309,6.073 14.029,15.351 20.726,17.937 6.162,2.38 14.942,4.329 19.502,4.329 l 1.875,0 -3.407,3.574 c -12.244,12.844 -15.496,22.833 -8.893,27.309 4.767,3.232 11.533,1.628 23.515,-5.575 10.135,-6.092 11.988,-8.171 9.661,-10.835 -0.794,-0.909 -3.018,0.089 -9.764,4.384 -10.215,6.503 -17.896,9.598 -19.479,7.849 -0.615,-0.68 -0.726,-3.034 -0.244,-5.189 0.907,-4.059 4.882,-9.366 13.499,-18.022 3.429,-3.445 4.5,-4.116 7.28,-4.561 2.79,-0.447 5.376,-1.681 10.754,-5.132 4.481,-2.875 4.598,-2.912 4.316,-1.361 -0.74,4.072 0.372,9.406 3.118,14.956 3.945,7.974 13.421,15.408 26.139,20.506 5.663,2.27 10.059,3.112 20.111,3.85 2.771,0.204 5.482,0.426 6.024,0.493 l 0.985,0.123 -0.703,2.038 c -0.893,2.592 -2.045,3.781 -4.35,4.493 -9.137,2.823 -24.045,-0.769 -34.183,-8.236 -3.193,-2.351 -4.687,-3.073 -6.63,-3.201 -6.64,-0.437 1.538,7.94 12.724,13.035 7.959,3.625 12.678,4.589 22.55,4.607 8.101,0.014 8.687,0.133 6.992,1.426 -1.126,0.859 -1.288,1.209 -1.521,3.283 -0.333,2.968 -1.195,3.602 -2.857,2.1 -0.807,-0.729 -1.052,-0.82 -2.204,-0.82 -3.464,0 -3.947,1.411 -1.637,4.784 2.102,3.07 2.613,4.928 1.648,5.994 -0.82,0.906 -2.491,0.133 -9.963,-4.613 -15.024,-9.539 -29.162,-13.929 -51.914,-16.117 -17.327,-1.666 -16.871,-1.597 -19.625,-2.953 -4.478,-2.204 -10.224,-6.835 -24.031,-19.367 -14.895,-13.519 -17.532,-14.955 -27.477,-14.955 -5.62,0 -7.093,0.218 -10.747,1.591 -6.987,2.624 -13.531,8.903 -15.391,14.765 -3.921,12.362 3.29,31.372 17.76,46.821 3.872,4.133 4.459,4.828 4.353,5.148 -0.043,0.129 -0.5,-0.047 -1.015,-0.391 z m 129.615,-27.826 c -1.405,-0.189 -3.62,-0.612 -4.922,-0.94 -10.966,-2.762 -26.171,-12.152 -23.36,-14.428 1.161,-0.941 3.964,0.069 7.102,2.558 10.121,8.029 26.801,11.807 35.805,8.109 7.985,-3.28 9.243,-3.392 8.455,-0.753 -1.247,4.178 -12.609,6.863 -23.08,5.454 z m -39.117,63.282 c -0.387,-0.046 -2.391,-0.248 -4.454,-0.45 -21.719,-2.127 -42.025,-9.756 -69.726,-26.193 -18.103,-10.742 -26.608,-20.049 -33.854,-37.047 -5.622,-13.192 -5.536,-20.512 0.335,-28.299 5.778,-7.664 13.694,-11.203 23.885,-10.677 8.039,0.415 11.303,2.176 22.056,11.901 14.357,12.985 22.657,19.89 26.297,21.875 3.047,1.662 6.331,2.33 15.07,3.063 29.893,2.51 46.803,7.938 61.777,19.828 6.435,5.11 8.536,8.528 9.115,14.825 1.354,14.746 -10.045,27.573 -26.884,30.25 -5.532,0.88 -19.373,1.421 -23.617,0.924 z m -86.224,-27.259 c -5.074,-2.52 -18.327,-14.031 -23.504,-20.414 -5.695,-7.021 -11.252,-17.888 -12.886,-25.196 -2.984,-13.349 2.353,-26.175 14.156,-34.02 6.717,-4.464 8.807,-5.075 18.051,-5.281 8.883,-0.197 11.27,0.152 17.236,2.519 11.574,4.591 17.961,9.36 12.537,9.36 -1.287,0 -2.559,-0.507 -5.877,-2.344 -18.485,-10.232 -36.88,-7.284 -46.803,7.5 -11.066,16.488 -3.297,38.089 21.373,59.427 8.227,7.115 8.827,7.768 7.952,8.642 -0.489,0.489 -0.942,0.45 -2.235,-0.193 z m 51.424,-48.459 c -6.89,-1.718 -7.293,-9.962 -0.925,-18.878 3.003,-4.203 8.382,-10.047 9.876,-10.727 0.285,-0.13 0.623,-0.539 0.752,-0.909 0.419,-1.203 -0.63,-1.562 -6.396,-2.189 -12.268,-1.332 -22.6,-6.446 -31.331,-15.506 -6.656,-6.907 -9.221,-19.182 -6.064,-29.028 3.688,-11.5063 16.97,-23.2082 30.116,-26.5349 13.36,-3.3809 35.763,4.2976 48.524,16.6317 5.029,4.8592 7.446,9.6742 8.199,16.3322 0.189,1.672 0.402,1.922 0.806,0.947 0.807,-1.949 -1.83,-9.539 -4.965,-14.2904 -5.045,-7.645 -22.948,-17.768 -36.506,-20.6415 -1.878,-0.398 -3.674,-0.8904 -3.991,-1.0942 l -0.576,-0.3707 1.162,-1.0362 c 5.236,-4.668 15.69,-12.4815 16.708,-12.4876 0.473,-0.0029 3.392,-0.1582 6.486,-0.3452 32.534,-1.9663 56.565,4.5064 71.678,19.3061 4.31,4.2216 6.599,7.2408 11.999,15.8304 5.209,8.2863 8.686,11.1723 14.717,12.2193 3.969,0.688 4.034,0.009 -1.359,14.166 -0.859,2.256 -1.988,5.235 -2.509,6.619 -0.521,1.384 -1.023,2.47 -1.115,2.413 -0.092,-0.057 -0.573,-0.768 -1.069,-1.579 -7.787,-12.747 -18.117,-18.367 -38.67,-21.041 -11.724,-1.525 -19.837,-0.636 -27.745,3.038 -1.827,0.85 -2.93,1.226 -3.564,1.218 -0.988,-0.014 -1.093,0.171 -0.692,1.226 l 0.227,0.595 3.113,-1.588 c 5.529,-2.82 15.346,-5.015 20.692,-4.625 25.466,1.857 38.093,8.084 46.598,22.982 2.293,4.017 3.024,9.743 2.264,17.753 -0.992,10.458 -14.074,24.458 -26.907,28.796 -17.089,5.777 -42.42,-1.163 -54.742,-14.998 -4.85,-5.445 -8.346,-14.157 -8.346,-20.795 0,-1.34 -0.055,-2.435 -0.123,-2.435 -0.278,0 -3.684,1.801 -6.205,3.281 -3.595,2.11 -5.676,3.138 -8.813,4.35 -10.179,3.934 -23.274,19.806 -22.179,26.882 0.376,2.432 0.596,2.589 3.453,2.466 4.358,-0.187 10.614,-3.003 19.038,-8.568 5.342,-3.531 7.631,-4.187 8.117,-2.33 0.201,0.77 -1.968,2.721 -5.999,5.396 -10.714,7.11 -19.44,10.62 -23.734,9.549 z m 129.538,-73.664 c -5.441,-0.729 -7.512,-2.71 -14.413,-13.7856 -9,-14.4429 -16.982,-21.2187 -31.871,-27.0542 -12.921,-5.0645 -19.846,-6.1247 -42.422,-6.4951 -16.968,-0.2783 -18.527,-0.5569 -19.564,-3.4944 -3.336,-9.4561 15.623,-17.2896 35.502,-14.6682 13.993,1.8452 29.873,6.4053 40.495,11.6283 11.309,5.5611 28.698,20.4615 34.732,29.762 8.761,13.5033 7.543,25.4472 -2.459,24.1072 z m 3.324,-25.6692 c -0.16,-0.0547 -1.809,-1.8576 -3.664,-4.0065 -9.02,-10.4458 -19.849,-18.8608 -32.608,-25.3394 -6.836,-3.4712 -11.395,-5.0103 -24.726,-8.3462 -4.319,-1.0807 -8.429,-2.1615 -9.133,-2.402 l -1.282,-0.4371 0.578,-0.3736 c 1.478,-0.9542 12.662,-4.278 18.118,-5.3843 5.013,-1.0166 19.196,-0.576 24.414,0.7584 6.75,1.7262 12.469,7.1571 17.895,16.9922 4.479,8.1174 12.143,29.1324 10.408,28.5385 z M 480.897,43.1105 c -4.232,-1.1884 -7.531,-4.0542 -7.018,-6.0971 0.223,-0.8869 1.226,-1.9129 2.79,-2.8518 4.268,-2.5634 8.823,-6.8283 10.943,-10.2482 2.672,-4.3089 3.947,-5.2036 9.475,-6.6508 4.295,-1.1246 8.498,-0.9133 15.955,0.8023 2.665,0.6131 3.125,0.6478 8.789,0.6609 3.287,0.0077 6.187,0.1067 6.445,0.2202 1.878,0.8264 4.164,3.2417 3.927,4.1487 -0.36,1.3765 -4.199,4.6608 -6.021,5.1515 -1.42,0.3823 -2.587,1.0286 -5.078,2.8105 -3.046,2.1788 -5.767,3.4291 -11.46,5.2667 -2.643,0.8529 -7.84,2.5417 -11.55,3.7528 -10.501,3.4282 -13.751,4.0017 -17.197,3.0343 z M 129.806,720.727 c 2.256,0.099 6,0.142 8.32,0.094 13.838,-0.283 17.122,-0.37 21.563,-0.571 12.451,-0.565 35.115,-4.596 50.847,-9.043 21.478,-6.073 50.022,-16.835 58.489,-22.053 6.139,-3.784 18.598,-12.186 27.5,-18.546 4.555,-3.254 7.803,-5.771 22.066,-17.098 26.067,-20.7 100.359,-87.258 114.243,-102.349 10.672,-11.601 21.769,-25.518 36.349,-45.586 2.107,-2.901 4.902,-6.697 6.211,-8.438 4.376,-5.816 19.078,-26.277 25.431,-35.39 1.214,-1.741 6.118,-8.701 10.9,-15.469 20.43,-28.915 22.682,-32.572 39.258,-63.75 7.404,-13.927 15.834,-28.876 24.703,-43.805 9.074,-15.275 10.363,-17.616 19.82,-36 8.099,-15.745 10.632,-20.574 16.715,-31.875 22.945,-42.62 40.736,-86.918 47.022,-117.078 5.36,-25.717 0.917,-62.1156 -9.927,-81.3217 C 633.385,44.2306 599.397,22.0028 550.744,7.98174 536.829,3.97173 530.636,3.82994 516.642,7.20094 c -2.965,0.71419 -7.76,1.76777 -10.655,2.34128 -19.252,3.81308 -42.951,15.64538 -61.064,30.48648 -16.317,13.3705 -29.791,29.5119 -49.756,59.6088 -3.549,5.3495 -9.638,14.5255 -13.532,20.3905 -8.099,12.202 -11.705,17.356 -18.035,25.781 -6.995,9.31 -13.895,18.752 -28.604,39.141 -20.259,28.083 -20.579,28.55 -47.807,69.844 -39.534,59.957 -47.587,70.963 -82.482,112.734 -27.077,32.414 -53.715,60.202 -78.065,81.438 -26.33,22.963 -46.2096,43.327 -71.8472,73.601 -18.4174,21.749 -29.2473,38.358 -37.2114,57.07 -15.84299,37.224 -15.95191,79.225 -0.2562,98.787 12.7827,15.932 31.7182,25.619 69.8227,35.721 9.5208,2.524 33.0911,6.161 42.6561,6.582 z"
       inkscape:connector-curvature="0"
       style="fill:#4d8124;stroke:none" />
  </g>
  <g
     inkscape:groupmode="layer"
     label="Inkscape Layer: path5391"
     id="Inkscape Layer: path5391"
     transform="translate(0.0101586,0.04107714)">
    <path
       label="path5391 (1): 1 (J)"
       id="path5391 (1): 1 (J)"
       d="m 434.116,156.244 c -12.149,-4.7 -21.331,-14.646 -21.354,-23.131 -0.01,-3.53 0.237,-3.903 2.412,-3.642 1.84,0.221 2.728,1.275 3.694,4.388 2.954,9.517 10.54,16.051 21.602,18.604 5.824,1.345 6.676,1.817 6.378,3.538 -0.496,2.863 -5.704,2.963 -12.732,0.243 z m 59.975,-114.92 c 3.652,-1.2961 10.375,-3.4542 14.94,-4.7959 5.178,-1.522 9.62,-3.538 11.811,-5.3609 1.931,-1.6067 4.261,-2.9214 5.176,-2.9214 1.665,0 6.253,-4.0986 6.253,-5.5855 0,-0.4333 -1.023,-1.629 -2.273,-2.6571 -1.868,-1.5374 -3.113,-1.7657 -7.008,-1.2852 -3.051,0.3763 -6.842,0.0697 -10.655,-0.862 -7.535,-1.8408 -12.063,-1.8269 -17.778,0.0544 -3.57,1.1752 -4.987,2.3212 -6.53,5.2836 -1.986,3.8116 -7.022,8.5626 -11.816,11.1467 -3.636,1.96 -3.212,4.8973 1.046,7.2485 4.75,2.6233 8.878,2.5583 16.834,-0.2652 z m 88.876,35.1641 c -7.49,-22.507 -14.709,-33.7084 -24.449,-37.9351 -2.339,-1.0153 -7.124,-1.682 -13.946,-1.9432 -9.506,-0.364 -11.311,-0.1432 -21.328,2.6092 -6.019,1.6538 -10.559,3.2925 -10.088,3.6416 0.47,0.3492 5.561,1.7288 11.314,3.0659 5.752,1.3371 13.553,3.6462 17.335,5.1311 12.994,5.102 29.625,16.983 37.943,27.1062 2.604,3.1683 4.903,5.621 5.111,5.4505 0.207,-0.1704 -0.644,-3.3773 -1.892,-7.1262 z m 1.69,36.2409 c 0.644,-2.112 0.344,-2.36 -3.465,-2.861 -5.712,-0.752 -9.722,-4.593 -16.16,-15.4797 -8.854,-14.9736 -22.403,-24.4774 -41.617,-29.191 -8.966,-2.1997 -25.702,-3.4326 -37.288,-2.747 l -10.176,0.6022 -8.36,6.4113 c -4.598,3.5262 -8.36,6.7112 -8.36,7.0778 0,0.3666 1.867,0.952 4.15,1.301 10.68,1.6328 29.433,11.6614 35.603,19.0397 3.477,4.1577 7.413,14.3857 6.172,16.0377 -1.534,2.042 0.803,2.635 3.657,0.928 7.942,-4.752 21.203,-5.355 37.844,-1.723 13.618,2.973 22.088,8.261 27.818,17.369 l 2.46,3.91 3.508,-9.181 c 1.93,-5.049 3.826,-10.222 4.214,-11.494 z M 393.049,218.813 c -11.147,-10.968 -19.308,-27.635 -19.308,-39.431 -10e-4,-8.051 1.708,-11.928 7.639,-17.34 5.329,-4.862 11.437,-7.196 18.899,-7.222 10.022,-0.035 13.431,1.767 27.277,14.418 17.455,15.947 23.941,20.833 28.483,21.454 2.06,0.282 8.881,0.949 15.159,1.482 22.782,1.935 39.51,7.169 53.631,16.781 4.124,2.807 7.983,4.857 8.577,4.555 1.683,-0.856 1.261,-3.38 -1.047,-6.261 -1.161,-1.449 -1.852,-3.19 -1.535,-3.869 0.67,-1.436 4.318,-1.659 5.32,-0.326 1.338,1.782 2.766,0.87 2.766,-1.767 0,-1.472 0.498,-2.931 1.107,-3.24 2.887,-1.468 0.575,-2.203 -5.333,-1.695 -11.128,0.957 -23.968,-3.121 -34.16,-10.85 -2.625,-1.991 -4.773,-4.387 -4.773,-5.325 0,-2.808 4.675,-2.064 8.747,1.392 8.223,6.979 24.606,11.252 33.69,8.785 3.116,-0.846 4.228,-1.743 4.938,-3.983 l 0.916,-2.891 -8.376,-0.61 c -4.606,-0.335 -9.898,-1.001 -11.76,-1.479 -13.125,-3.376 -26.698,-12.074 -31.785,-20.371 -3.433,-5.597 -5.534,-13.536 -4.489,-16.962 0.712,-2.332 0.66,-2.321 -4.157,0.883 -5.777,3.844 -8.998,5.307 -11.68,5.307 -2.093,0 -4.157,1.773 -12.149,10.436 -5.889,6.383 -8.162,10.48 -8.162,14.713 0,2.276 0.484,3.075 1.864,3.075 3.251,0 10.612,-3.428 18.553,-8.64 4.23,-2.776 8.214,-4.907 8.854,-4.734 0.639,0.172 1.285,1.305 1.436,2.519 0.219,1.771 -1.221,3.139 -7.318,6.945 -15.083,9.415 -22.264,11.292 -27.313,7.138 -5.49,-4.517 -2.361,-14.493 7.938,-25.307 l 4.986,-5.235 -3.277,0 c -4.417,0 -16.568,-3.192 -20.636,-5.421 -6.503,-3.563 -16.014,-12.144 -17.854,-16.107 -1.728,-3.724 -3.087,-4.856 -3.937,-3.282 -0.203,0.376 -3.599,2.936 -7.546,5.69 -5.647,3.941 -16.601,12.609 -16.15,12.78 0.048,0.018 3.601,0.12 7.896,0.228 6.485,0.161 9.205,0.762 16.046,3.547 8.602,3.5 15.093,8.09 13.827,9.775 -1.167,1.554 -5.23,1.15 -7.731,-0.768 -3.776,-2.898 -13.028,-6.283 -18.928,-6.927 -12.058,-1.316 -20.008,2.708 -26.65,13.489 -5.727,9.297 -7.553,16.082 -5.895,21.898 3.499,12.27 9.68,21.915 20.69,32.285 7.023,6.614 9.368,7.02 2.71,0.468 z M 100.297,622.158 c 8.939,1.884 24.574,-0.892 35.326,-6.274 11.707,-5.859 20.879,-13.392 58.703,-48.212 40.218,-37.025 53.923,-50.64 57.102,-56.73 3.776,-7.235 8.185,-11.036 20.903,-18.02 6.518,-3.581 7.937,-4.405 10.985,-6.383 13.223,-8.579 25.82,-21.134 33.361,-33.248 2.999,-4.817 4.311,-7.851 7.499,-17.349 5.878,-17.509 12.187,-28.883 25.155,-45.352 12.723,-16.158 19.911,-22.34 42.465,-36.519 20.338,-12.786 25.918,-16.441 31.648,-20.734 8.897,-6.664 13.023,-11.007 23.91,-25.165 9.216,-11.984 17.927,-22.734 26.446,-32.637 4.286,-4.982 6.733,-7.996 8.393,-10.335 1.546,-2.181 2.51,-3.013 4.194,-3.623 3.055,-1.106 1.697,-1.63 -7.639,-2.946 -22.002,-3.101 -43.965,-11.88 -71.702,-28.66 -5.054,-3.057 -5.432,-3.229 -4.643,-2.109 2.033,2.884 1.876,4.525 -0.432,4.525 -4.418,0 -20.006,-12.904 -26.572,-21.996 -4.629,-6.41 -8.646,-13.004 -9.874,-16.207 -1.268,-3.308 -2.108,-2.342 -2.571,2.959 -1.429,16.347 -3.782,28.83 -8.995,47.722 -6.086,22.055 -10.288,31.726 -22.171,51.038 -6.857,11.144 -8.95,15.388 -10.563,21.423 -2.954,11.052 -4.288,13.075 -18.482,28.03 -9.885,10.416 -11.796,12.606 -17.588,20.156 -6.856,8.937 -10.27,12.626 -20.625,22.287 -19.978,18.64 -28.653,29.77 -40.418,51.859 -9.36,17.573 -17.792,28.707 -34.218,45.187 -6.906,6.928 -8.885,8.636 -10.004,8.636 -0.709,0 -2.899,2.146 -2.899,2.841 0,1.743 -2.541,4.43 -9.014,9.532 -31.628,24.931 -55.378,49.22 -69.9125,71.499 -17.6769,27.097 -16.9965,40.75 2.2325,44.805 z"
       inkscape:connector-curvature="0"
       style="fill:#77c637;stroke:none" />
  </g>
  <g
     inkscape:groupmode="layer"
     label="New Layer"
     id="g10"
     transform="translate(0.0101586,0.04107714)">
    <path
       label="path5385 (1) (1) (1): 4 (J)"
       id="path5385 (1) (1) (1): 4 (J)"
       d="m 419.139,168.431 c -0.434,1.885 -6.207,2.384 -7.035,0.608 -0.924,-1.98 -0.112,-5.391 1.379,-5.795 1.754,-0.475 6.052,3.466 5.656,5.187 z m 11.781,14.041 c -2.936,0.927 -8.795,0.617 -10.201,-0.54 -1.603,-1.319 -1.727,-4.787 -0.252,-7.055 1.97,-3.028 4.242,-2.843 8.294,0.673 4.196,3.642 4.945,6.042 2.159,6.922 z m 10.71,12.326 c -1.768,1.036 -4.43,1.883 -5.915,1.883 -2.829,0 -6.364,-2.499 -6.364,-4.5 0,-1.785 4.582,-8.1 6.262,-8.631 2.253,-0.711 9.231,4.766 9.231,7.246 0,1.3 -1.242,2.847 -3.214,4.002 z m 12.424,6.615 c -5.503,5.002 -12.377,-2.223 -7.159,-7.524 l 2.051,-2.084 3.759,1.837 c 4.151,2.028 4.63,4.788 1.349,7.771 z m 52.557,2.798 c 0.554,2.369 -4.91,2.096 -6.484,-0.324 -0.68,-1.044 -0.937,-2.145 -0.571,-2.446 1.202,-0.989 6.678,1.162 7.055,2.77 z m -16.938,-1.332 c -1.635,1.599 -3.58,2.907 -4.322,2.907 -3.555,0 -8.033,-5.754 -6.288,-8.078 0.974,-1.296 9.007,-0.488 11.792,1.188 1.609,0.967 1.489,1.372 -1.182,3.983 z m -5.158,51.784 c -1.316,1.305 -1.327,1.306 -5.364,0.387 -3.703,-0.842 -4.224,-4.198 -1.08,-6.951 1.332,-1.167 3.106,-1.905 3.943,-1.641 2.197,0.694 4.027,6.693 2.501,8.205 z m -11.656,-2.788 c -1.292,2.771 -15.841,-0.331 -15.841,-3.377 0,-0.422 1.545,-2.216 3.434,-3.986 3.658,-3.427 7.513,-4.165 9.819,-1.878 1.711,1.696 3.361,7.585 2.588,9.241 z m -19.38,-8.101 c -0.184,2.313 -0.833,4.32 -1.441,4.46 -0.609,0.14 -3.473,-0.758 -6.364,-1.995 -7.203,-3.081 -6.865,-6.022 1.082,-9.401 2.061,-0.877 2.84,-0.74 4.761,0.841 1.793,1.475 2.224,2.812 1.962,6.095 z m -15.503,-8.002 c -0.385,5.98 -1.681,6.502 -7.849,3.163 -5.474,-2.964 -6.072,-4.5 -2.853,-7.331 4.27,-3.756 6.371,-4.348 8.858,-2.497 1.752,1.305 2.107,2.588 1.844,6.665 z m -15.481,-8.053 c -0.185,2.63 -0.835,4.879 -1.444,4.998 -1.52,0.297 -10.283,-4.343 -11.02,-5.834 -0.789,-1.599 5.277,-6.53 8.033,-6.53 3.475,0 4.796,2.197 4.431,7.366 z m -14.935,-3.496 c -0.26,0.375 -0.844,0.683 -1.297,0.683 -1.34,0 -7.899,-5.907 -7.899,-7.115 0,-0.61 1.791,-1.811 3.979,-2.67 3.825,-1.5 4.038,-1.493 5.541,0.198 1.414,1.591 1.229,6.663 -0.324,8.904 z m -10.839,-10.265 c -0.385,0.513 -1.163,0.933 -1.728,0.933 -1.354,0 -6.589,-6.858 -6.589,-8.632 0,-1.774 3.773,-1.792 5.918,-0.027 1.925,1.584 3.413,6.376 2.399,7.726 z m 73.178,-9.502 c -3.094,1.783 -3.501,1.713 -6.161,-1.069 -2.542,-2.658 -3.015,-6.232 -0.964,-7.274 1.745,-0.888 10.012,-0.473 11.28,0.566 1.369,1.122 -1.311,6.138 -4.155,7.777 z"
       inkscape:connector-curvature="0"
       style="fill:#ffffff;stroke:none" />
  </g>
  <g
     inkscape:groupmode="layer"
     label="New Layer"
     id="g13"
     transform="translate(0.0101586,0.04107714)">
    <path
       label="path5385 (1) (1) (1): 1"
       id="path5385 (1) (1) (1): 1"
       d="m 584.285,105.178 c -3.384,3.355 -8.192,-0.243 -14.229,-10.65 C 559.436,76.2225 546.5,67.1872 522.651,61.4186 514.169,59.367 510.605,59.038 495.197,58.8838 l -17.706,-0.1772 -0.36,-2.5645 c -0.484,-3.4505 2.125,-5.6006 9.64,-7.9457 11.732,-3.6607 26.728,-2.3168 48.033,4.3044 17.412,5.4112 36.936,19.8714 45.074,33.3827 5.166,8.5772 7.022,16.7025 4.407,19.2945 z"
       inkscape:connector-curvature="0"
       style="fill:#afeeee;stroke:none" />
  </g>
  <g
     inkscape:groupmode="layer"
     label="New Layer"
     id="g16"
     transform="translate(0.0101586,0.04107714)">
    <path
       label="path5385 (1) (1) (1): 11"
       id="path5385 (1) (1) (1): 11"
       d="m 499.901,253.536 c -4.324,1.091 -9.661,1.169 -10.682,0.156 -0.625,-0.619 -1.97,-4.248 -2.989,-8.064 -2.583,-9.67 -5.18,-12.935 -15.379,-19.331 -4.87,-3.054 -8.854,-6.153 -8.854,-6.886 0,-2.255 14.212,-1.647 21.336,0.912 6.932,2.49 15.163,9.561 16.811,14.443 1.655,4.902 1.481,18.335 -0.243,18.77 z"
       inkscape:connector-curvature="0"
       style="fill:#ff0000;stroke:none" />
  </g>
  <g
     inkscape:groupmode="layer"
     label="New Layer"
     id="g19"
     transform="translate(0.0101586,0.04107714)">
    <path
       label="path5385 (1) (1) (1): 2 (J)"
       id="path5385 (1) (1) (1): 2 (J)"
       d="m 452.591,110.383 c -4.09,-1.155 -3.658,-3.837 0.619,-3.837 1.936,0 2.701,0.5 2.701,1.767 0,2.079 -1.026,2.718 -3.32,2.07 z m 80.252,36.24 c -1.624,-1.476 -1.731,-2.055 -0.59,-3.187 1.941,-1.923 7.124,-1.875 6.222,0.058 -0.369,0.792 -0.671,2.226 -0.671,3.186 0,2.263 -2.441,2.234 -4.961,-0.057 z m -58.672,-0.801 c 6.985,-2.611 17.614,-11.876 22.303,-19.44 3.566,-5.752 4.118,-7.482 4.148,-13.008 0.027,-4.823 -0.58,-7.415 -2.492,-10.656 -5.831,-9.8803 -25.908,-20.7911 -39.576,-21.5071 -6.299,-0.33 -7.996,-0.0331 -14.218,2.4868 -7.723,3.1279 -16.742,10.4307 -20.775,16.8223 -3.285,5.205 -4.039,18.277 -1.473,25.539 2.865,8.107 11.583,15.198 23.744,19.314 8.027,2.717 21.692,2.933 28.339,0.449 z m 76.359,30.755 c 7.46,-2.874 16.586,-10.538 20.22,-16.98 2.18,-3.865 3.074,-7.107 3.384,-12.276 1.25,-20.874 -15.751,-33.426 -45.516,-33.603 -8.359,-0.05 -10.582,0.282 -15.694,2.339 -7.513,3.024 -12.005,7.225 -17.037,15.934 -3.476,6.014 -3.971,7.731 -3.952,13.704 0.026,8.636 3.599,15.473 11.309,21.642 13.679,10.945 33.038,14.728 47.286,9.24 z"
       inkscape:connector-curvature="0"
       style="fill:#eafda8;stroke:none" />
  </g>
</svg>
